<?xml version="1.0" encoding="UTF-8" standalone="no"?>
<!-- Created with Inkscape (http://www.inkscape.org/) -->

<svg
   width="210mm"
   height="297mm"
   viewBox="0 0 210 297"
   version="1.1"
   id="svg5"
   inkscape:version="1.1.1 (3bf5ae0d25, 2021-09-20)"
   sodipodi:docname="logo.svg"
   xmlns:inkscape="http://www.inkscape.org/namespaces/inkscape"
   xmlns:sodipodi="http://sodipodi.sourceforge.net/DTD/sodipodi-0.dtd"
   xmlns="http://www.w3.org/2000/svg"
   xmlns:svg="http://www.w3.org/2000/svg">
  <sodipodi:namedview
     id="namedview7"
     pagecolor="#ffffff"
     bordercolor="#666666"
     borderopacity="1.0"
     inkscape:pageshadow="2"
     inkscape:pageopacity="0.0"
     inkscape:pagecheckerboard="0"
     inkscape:document-units="mm"
     showgrid="false"
     inkscape:zoom="0.72337262"
     inkscape:cx="603.42345"
     inkscape:cy="561.95105"
     inkscape:window-width="1920"
     inkscape:window-height="1001"
     inkscape:window-x="-9"
     inkscape:window-y="-9"
     inkscape:window-maximized="1"
     inkscape:current-layer="layer1" />
  <defs
     id="defs2" />
  <g
     inkscape:label="logo"
     inkscape:groupmode="layer"
     id="layer1">
    <path
       style="fill:#000000;stroke-width:0.164101"
       d="m 47.932491,140.88585 c -1.405195,-0.2326 -3.258196,-1.12415 -4.236962,-2.03858 -2.844539,-2.65757 -3.256593,-6.75284 -1.006446,-10.00275 1.860273,-2.68682 5.498051,-3.97057 9.027249,-3.18566 3.55254,0.7901 5.476123,2.87082 6.062457,6.55771 l 0.102188,0.64256 -6.439354,0.0398 -6.439354,0.0398 -0.05475,0.56345 c -0.08357,0.85989 0.628218,2.88889 1.293884,3.68835 1.084018,1.30188 2.419326,1.81645 4.423635,1.70466 2.033169,-0.11341 3.550848,-0.94744 4.479265,-2.46156 0.453675,-0.73988 0.556367,-0.81916 0.95481,-0.73712 1.449241,0.2984 1.509676,0.45769 0.699144,1.84268 -1.554669,2.65652 -5.05426,3.97756 -8.865761,3.34665 z m 6.215624,-10.12165 c 0,-0.85876 -0.948705,-2.37625 -1.824114,-2.91773 -2.454401,-1.51814 -5.721981,-0.54335 -6.856307,2.04536 -0.690192,1.57513 -1.033897,1.45471 4.151895,1.45471 h 4.528526 z m 8.381511,10.00867 c -1.538747,-0.46884 -2.379081,-1.31154 -2.608072,-2.61541 -0.358389,-2.04067 1.467596,-3.60063 5.763398,-4.92377 1.688047,-0.51994 3.348212,-1.30416 4.009417,-1.89397 0.490052,-0.43714 0.525573,-0.54835 0.525573,-1.64556 0,-1.06406 -0.04917,-1.23176 -0.513505,-1.75149 -0.792443,-0.88696 -1.810486,-1.20139 -3.583978,-1.10691 -1.026185,0.0547 -1.737451,0.1884 -2.408721,0.4529 l -0.952544,0.37533 0.721923,0.17156 c 1.033781,0.24566 1.557138,0.77705 1.557138,1.58104 0,0.82177 -0.408928,1.3585 -1.294939,1.69965 -1.831294,0.70512 -3.728736,-0.73052 -3.185561,-2.41026 0.242198,-0.74899 1.591067,-1.98311 2.684705,-2.45631 2.768204,-1.19777 6.870216,-1.01464 8.873279,0.39611 0.36007,0.25361 0.879518,0.85206 1.154331,1.32991 l 0.499657,0.86883 0.08879,4.54913 c 0.08077,4.1379 0.119162,4.58738 0.424726,4.97229 0.436022,0.54925 0.818168,0.71412 1.655155,0.71412 0.745248,0 1.344721,-0.28472 1.692516,-0.80387 0.1256,-0.18748 0.262225,-1.09665 0.312156,-2.07724 l 0.0888,-1.74384 0.867507,-0.047 0.867506,-0.0471 -0.0832,1.96743 c -0.07587,1.79396 -0.128868,2.04546 -0.601124,2.85235 -0.402201,0.6872 -0.713075,0.98649 -1.391348,1.33952 -0.791435,0.41193 -1.016491,0.45457 -2.397454,0.45418 -1.223708,-3e-4 -1.666398,-0.0653 -2.2465,-0.32989 -1.015384,-0.46304 -1.922874,-1.37811 -2.197595,-2.21592 -0.128648,-0.39235 -0.29374,-0.71335 -0.366869,-0.71335 -0.07313,0 -0.234177,0.20864 -0.357882,0.46364 -0.371762,0.76636 -1.69523,1.79632 -2.955066,2.29971 -1.521728,0.60804 -3.252195,0.71771 -4.642219,0.29419 z m 4.671299,-2.04985 c 1.145211,-0.45667 1.880409,-0.99382 2.56086,-1.87099 0.536757,-0.69193 0.546952,-0.73997 0.546952,-2.57732 v -1.87224 l -1.230821,0.80071 c -0.676951,0.44039 -2.043889,1.17227 -3.037638,1.62641 -2.140416,0.97815 -2.657522,1.48976 -2.657522,2.62933 0,0.60979 0.08822,0.80998 0.519108,1.1779 0.444488,0.37953 0.655089,0.44304 1.465111,0.44177 0.61632,-9.2e-4 1.255455,-0.12488 1.83395,-0.35557 z m 18.469282,2.18605 c -0.569136,-0.11883 -1.776315,-0.63577 -2.227091,-0.95367 -0.456727,-0.3221 -1.173105,-1.22307 -1.419427,-1.78516 -0.166803,-0.38063 -0.261634,-2.0103 -0.335308,-5.76223 l -0.102727,-5.23151 -1.553905,-0.0438 c -1.371801,-0.0387 -1.553907,-0.0765 -1.553907,-0.32279 0,-0.17028 0.219146,-0.35648 0.562441,-0.4779 0.309345,-0.10941 1.071313,-0.60539 1.693266,-1.10218 1.020648,-0.81524 1.269353,-1.14587 2.552686,-3.3935 0.859013,-1.5045 1.50684,-2.46614 1.636533,-2.42929 0.156209,0.0443 0.227763,0.89384 0.262747,3.11913 l 0.04807,3.05814 h 3.281725 3.281723 v 0.75478 0.75476 l -3.241004,0.0414 -3.241004,0.0413 v 5.23151 c 0,4.7154 0.03096,5.27987 0.313789,5.72176 0.401303,0.62699 1.140417,0.9503 2.172461,0.9503 1.934732,0 2.599752,-0.86274 2.717574,-3.52558 l 0.07883,-1.78174 h 0.862673 c 0.766603,0 0.874796,0.0413 0.971514,0.37027 0.14378,0.48916 -0.210436,3.63523 -0.496106,4.40632 -0.343679,0.92767 -1.628055,1.96779 -2.790408,2.25974 -0.995855,0.25014 -2.542888,0.29465 -3.475156,0.1 z m 54.218573,-0.0601 c -1.12813,-0.27255 -2.08667,-0.83974 -2.70343,-1.59966 -0.92845,-1.14398 -1.03029,-1.77744 -1.14868,-7.14455 l -0.1087,-4.92823 -1.46511,-0.0441 -1.46512,-0.0441 v -0.75206 -0.75206 h 3.274 3.274 l 0.0558,5.80015 c 0.0607,6.31401 0.0777,6.4254 1.10419,7.23383 0.71989,0.56699 2.41429,0.62299 3.69552,0.12214 1.05007,-0.41049 2.06056,-1.10563 2.67313,-1.83891 0.38447,-0.46022 0.39967,-0.61866 0.48568,-5.06065 0.0723,-3.73187 0.0448,-4.59994 -0.14771,-4.66286 -0.13008,-0.0425 -0.82934,-0.0773 -1.55391,-0.0773 h -1.31739 v -0.75819 -0.7582 h 3.2854 3.28539 v 6.73145 6.73144 l 0.39959,0.0808 c 0.21976,0.0444 0.939,0.12799 1.59829,0.18573 l 1.19874,0.10499 v 0.64159 0.6416 l -2.08668,0.10157 c -1.14767,0.0558 -2.6261,0.1443 -3.2854,0.19652 l -1.19873,0.0949 -0.009,-1.57606 -0.009,-1.57606 -0.47636,0.53073 c -0.80733,0.89947 -1.8387,1.65535 -2.81551,2.06342 -1.14123,0.47676 -3.25669,0.62213 -4.54033,0.31201 z m 32.41376,-0.006 c -1.51061,-0.42341 -2.59097,-1.21336 -3.2137,-2.34982 -0.25979,-0.47411 -0.31423,-1.29596 -0.39301,-5.93348 l -0.0914,-5.38314 -1.6427,-0.0436 c -1.43393,-0.0381 -1.6427,-0.0777 -1.6427,-0.312 0,-0.16884 0.27201,-0.37088 0.73335,-0.54468 0.40334,-0.15194 1.18365,-0.66077 1.73403,-1.13072 0.98323,-0.83954 1.70057,-1.90775 3.19303,-4.7548 0.32437,-0.61879 0.64413,-1.02355 0.80859,-1.02355 0.23378,0 0.2788,0.43178 0.32011,3.07068 l 0.0481,3.07066 3.2854,0.0758 3.28539,0.0758 0.0542,0.72028 0.0541,0.72028 h -3.10301 c -1.70666,0 -3.22943,0.0414 -3.38393,0.092 -0.24759,0.0811 -0.28091,0.63627 -0.28091,4.68007 0,5.39109 0.092,6.01391 0.99452,6.73109 0.61619,0.48966 0.6862,0.50703 1.8002,0.44646 1.03027,-0.056 1.21447,-0.11595 1.65747,-0.5393 0.67977,-0.64962 0.87333,-1.35612 0.8745,-3.19195 l 8.7e-4,-1.5622 0.93235,0.0458 0.93234,0.0458 -0.0358,1.64663 c -0.0647,2.97173 -0.65466,4.21752 -2.37635,5.01764 -1.10314,0.51267 -3.31943,0.67364 -4.54504,0.33011 z m 14.14957,-0.0163 c -1.71784,-0.32996 -3.34404,-1.08918 -3.97316,-1.8549 -0.67282,-0.81893 -0.81868,-1.99184 -0.34321,-2.75984 0.88164,-1.42406 3.46478,-1.33578 3.98122,0.13607 0.2702,0.77003 -0.0542,1.61537 -0.74961,1.95311 -0.28121,0.13659 -0.5118,0.29211 -0.51242,0.34561 -0.002,0.13665 1.15402,0.5086 2.28824,0.73652 1.22288,0.24572 3.29624,0.11822 4.31115,-0.26512 2.62855,-0.99284 2.51831,-3.2376 -0.20952,-4.26621 -0.43831,-0.16528 -1.99566,-0.61786 -3.46076,-1.00573 -4.30621,-1.14001 -5.54401,-1.98696 -5.72551,-3.91753 -0.21133,-2.24804 1.68331,-3.84202 5.17669,-4.35518 2.82625,-0.41516 6.53117,0.34675 7.96666,1.63833 1.36737,1.23029 0.7612,3.27534 -1.03099,3.47834 -2.13402,0.24172 -3.38291,-1.63668 -1.82999,-2.75243 0.30196,-0.21695 0.51901,-0.41597 0.48233,-0.44227 -0.0367,-0.0263 -0.46628,-0.17702 -0.95465,-0.33495 -1.33965,-0.43322 -4.17683,-0.40722 -5.17215,0.0474 -1.1239,0.51335 -1.66503,1.14987 -1.66503,1.95856 0,1.18317 0.61674,1.51492 4.88371,2.62701 3.88807,1.01335 5.33444,1.76184 6.07558,3.14412 0.38989,0.72719 0.43927,0.99108 0.36651,1.95906 -0.14342,1.90824 -1.24098,3.00966 -3.68947,3.70246 -1.51753,0.42939 -4.58101,0.54156 -6.21562,0.22758 z m -92.346414,-0.91293 v -0.98565 h 2.043719 2.04372 l -0.04584,-8.75708 -0.04584,-8.75709 -1.997879,-0.0429 -1.997879,-0.0428 v -0.90488 -0.90486 h 11.191223 11.19123 l -0.0475,3.75305 -0.0475,3.75303 h -1.42071 -1.42072 l -0.0888,-2.80529 -0.0888,-2.80531 h -5.59406 -5.59406 l -0.0475,3.75304 -0.0475,3.75303 h 3.02212 3.02212 v -1.66801 -1.66802 h 1.15433 1.15433 v 4.09422 4.09422 h -1.15433 -1.15433 v -1.59219 -1.5922 h -3.01901 -3.01902 v 4.17004 4.17003 h 2.13107 2.13107 v 0.98565 0.98564 h -6.12683 -6.126829 z m 23.796964,0.23335 v -0.75228 l 1.5539,-0.0438 1.55391,-0.0438 0.0464,-6.0276 0.0464,-6.0276 h -1.60034 -1.60034 v -0.83401 -0.83401 h 3.0937 3.0937 l 0.0958,0.41701 c 0.0527,0.22935 0.14546,0.82642 0.20624,1.32683 0.18706,1.54013 0.24678,1.59976 0.75165,0.75055 0.65529,-1.10222 1.21988,-1.67568 2.06723,-2.09969 1.53667,-0.76894 3.49221,-0.65305 4.6813,0.27743 0.58628,0.45878 0.64788,0.58593 0.71165,1.46934 0.0594,0.8233 0.008,1.04602 -0.34766,1.49784 -0.89352,1.13591 -2.42087,1.32562 -3.59367,0.44636 -0.74403,-0.5578 -0.93575,-1.27056 -0.55246,-2.05385 0.15125,-0.30911 0.23972,-0.59214 0.19658,-0.62897 -0.0431,-0.0368 -0.33202,-0.0194 -0.64197,0.0387 -0.81519,0.15287 -1.80381,1.07589 -2.27251,2.12172 -0.60606,1.3523 -0.76131,2.82343 -0.70414,6.67226 l 0.0518,3.48766 h 1.82052 1.82052 l -1.8e-4,0.79611 -1.7e-4,0.79609 h -5.23889 -5.23887 v -0.75228 z m 37.47134,0 v -0.75228 l 1.5539,-0.0438 1.5539,-0.0438 v -6.06551 -6.06551 l -1.5539,-0.0438 -1.5539,-0.0438 v -0.75228 -0.7523 h 3.37238 3.37238 l 0.0462,6.86161 0.0462,6.86161 1.5983,0.0429 1.5983,0.043 -0.0615,0.75312 -0.0615,0.75311 h -4.95537 -4.95535 z m 3.59729,-17.542 c -1.65928,-0.69844 -1.67976,-2.81435 -0.0345,-3.56774 1.06104,-0.48589 2.07367,-0.29914 3.00806,0.55472 0.3588,0.32789 0.44397,0.56103 0.44397,1.21531 0,0.65426 -0.0852,0.88741 -0.44397,1.21529 -0.9144,0.83562 -1.90915,1.03046 -2.97351,0.58242 z"
       id="path21"
       inkscape:label="letras" />
    <path
       style="fill:#000000;stroke-width:0.129456"
       d="m 17.773082,142.4585 c -1.277572,-1.15808 -1.292998,-1.26266 -0.308027,-2.08852 l 0.530317,-0.44466 1.474979,1.40407 c 0.830005,0.7901 1.444268,1.47398 1.404753,1.56395 -0.05067,0.11532 -0.401335,0.1599 -1.258074,0.1599 h -1.187847 z m 4.560638,0.49548 c -0.191879,-0.0681 -0.108086,-0.19837 0.48473,-0.75401 0.39419,-0.36948 1.077171,-1.01439 1.517734,-1.43314 l 0.801017,-0.76135 1.207152,1.11885 c 1.705865,1.58109 1.676327,1.53336 1.083012,1.74996 -0.366389,0.13376 -1.042209,0.1768 -2.675927,0.17045 -1.202159,-0.005 -2.290129,-0.0455 -2.417718,-0.0907 z m 7.118283,-0.0891 c -0.169293,-0.10361 -0.305105,-0.25335 -0.301802,-0.33277 0.0031,-0.0795 0.619632,-0.71421 1.369624,-1.41064 1.492619,-1.38602 1.460945,-1.37722 2.105997,-0.58572 l 0.283314,0.34763 -0.622936,0.63117 c -1.397278,1.41571 -1.56165,1.5387 -2.056531,1.5387 -0.258425,0 -0.608373,-0.0848 -0.777666,-0.18837 z m -9.344588,-2.02624 c -0.818851,-0.7663 -1.488819,-1.43014 -1.488819,-1.4752 0,-0.14116 2.816138,-2.73029 2.932171,-2.6958 0.213732,0.0635 2.884552,2.65574 2.880123,2.79537 -0.0026,0.0779 -0.641277,0.73268 -1.419571,1.45521 l -1.415086,1.31369 z m 6.993986,-0.0877 c -0.704593,-0.66556 -1.280696,-1.25023 -1.280236,-1.29928 0.0011,-0.11506 2.662936,-2.63031 2.783612,-2.63031 0.11746,0 2.617118,2.34928 2.615998,2.45863 -0.001,0.0843 -2.619396,2.60024 -2.760495,2.65235 -0.04276,0.0158 -0.654291,-0.51583 -1.358879,-1.18139 z m -11.26741,-0.31924 c -0.119665,-0.12216 -0.691361,-0.82522 -1.270437,-1.56235 l -1.052868,-1.34025 0.491583,-0.4295 0.491583,-0.42951 1.003004,0.92271 c 0.551653,0.50749 1.192915,1.11416 1.42502,1.34814 l 0.422012,0.42544 -0.646161,0.64372 c -0.614079,0.61175 -0.656965,0.63269 -0.863736,0.4216 z m 17.079464,-0.73183 -0.412455,-0.44921 1.397718,-1.31086 c 1.298452,-1.21778 1.406015,-1.29129 1.514478,-1.03512 0.07153,0.16894 0.05594,0.39372 -0.0402,0.58028 -0.282387,0.54778 -1.819122,2.66413 -1.934489,2.66413 -0.06191,0 -0.298175,-0.20215 -0.525026,-0.44922 z m -16.349898,-2.20358 c -0.774033,-0.72594 -1.406694,-1.36534 -1.40592,-1.42089 0.0011,-0.0555 0.650459,-0.69998 1.443745,-1.43207 l 1.442336,-1.33106 1.291527,1.19719 c 0.710341,0.65845 1.342672,1.27309 1.405188,1.36585 0.12204,0.18111 -0.05046,0.37573 -1.776462,2.004 l -0.993085,0.93687 z m 7.068583,-0.03 c -0.776976,-0.74343 -1.409977,-1.41047 -1.406674,-1.48232 0.0032,-0.0718 0.624533,-0.70237 1.380507,-1.40118 l 1.374508,-1.27056 0.448734,0.42352 c 0.246804,0.23294 0.903193,0.85004 1.458631,1.37136 0.555443,0.52131 1.009898,1.00205 1.009898,1.06832 0,0.1313 -2.631033,2.64256 -2.768594,2.64256 -0.04637,0 -0.720035,-0.60826 -1.49701,-1.3517 z m 6.931628,0.029 c -0.704587,-0.66 -1.281079,-1.23837 -1.281079,-1.28529 0,-0.0977 0.645471,-0.7449 1.841835,-1.8467 l 0.829602,-0.76403 1.288769,1.18755 c 0.708818,0.65315 1.291878,1.24316 1.295683,1.31114 0.0061,0.11026 -2.423372,2.49531 -2.615826,2.56792 -0.04287,0.0162 -0.65439,-0.5106 -1.358984,-1.17059 z m -18.311192,-2.06815 c -0.40547,-0.73357 -0.704693,-1.36217 -0.664937,-1.39691 0.03979,-0.0347 0.577847,0.41333 1.195747,0.9957 l 1.123465,1.05885 -0.370683,0.33806 c -0.203877,0.18593 -0.410219,0.33805 -0.458533,0.33805 -0.04831,0 -0.419588,-0.60019 -0.825059,-1.33375 z m 15.021944,-1.04307 c -1.89599,-1.77353 -1.863903,-1.50099 -0.345615,-2.93511 0.711775,-0.67232 1.333423,-1.22238 1.381438,-1.22238 0.04805,0 0.753876,0.63108 1.568555,1.4024 l 1.481239,1.40241 -1.336993,1.25972 c -0.735346,0.69284 -1.374157,1.25954 -1.419582,1.25931 -0.04544,-2.4e-4 -0.643497,-0.52508 -1.329042,-1.16635 z m 6.786242,0.11476 c -0.609379,-0.57429 -1.191298,-1.14665 -1.293155,-1.27191 -0.200908,-0.24707 -0.256713,-0.18131 1.811894,-2.13524 0.944398,-0.89204 0.789459,-0.92719 2.201367,0.49931 0.891589,0.90081 1.018829,1.3292 0.568231,1.91314 -0.294898,0.38215 -2.014812,2.04543 -2.111131,2.04161 -0.03811,-9.3e-4 -0.567828,-0.47262 -1.177206,-1.04691 z m -21.032922,-0.3377 -1.354162,-1.27235 0.253311,-0.28136 c 0.139325,-0.15475 0.799546,-0.79459 1.467168,-1.42186 l 1.213853,-1.1405 1.177384,1.08906 c 1.875005,1.73434 1.849001,1.42427 0.245658,2.92872 -0.756785,0.71011 -1.437416,1.30899 -1.512509,1.33086 -0.0751,0.0219 -0.745915,-0.53279 -1.490703,-1.23257 z m 7.057841,-0.0467 c -0.754629,-0.72157 -1.358292,-1.36062 -1.341469,-1.42011 0.01681,-0.0595 0.643911,-0.68861 1.393526,-1.39808 l 1.362941,-1.28994 1.398099,1.33208 c 0.768961,0.73265 1.398106,1.36976 1.398106,1.41582 0,0.0842 -2.618486,2.59037 -2.762182,2.64365 -0.04234,0.0157 -0.694386,-0.56185 -1.449021,-1.28342 z m 10.281219,-3.12257 -1.474171,-1.41281 1.400832,-1.30982 c 0.770464,-0.72041 1.438819,-1.30983 1.485243,-1.30983 0.04643,0 0.752829,0.62917 1.569785,1.39817 l 1.485368,1.39815 -1.409658,1.32448 c -0.77531,0.72846 -1.448701,1.32448 -1.496439,1.32448 -0.04774,0 -0.750164,-0.63577 -1.56096,-1.41282 z m -19.495704,1.06334 c -0.216801,-0.35393 -0.700778,-2.60414 -0.700778,-3.25817 0,-0.28736 0.06994,-0.64141 0.155416,-0.78678 0.213142,-0.36247 0.833597,-0.9304 1.013075,-0.9273 0.08096,9.3e-4 0.700961,0.52213 1.37777,1.15719 1.127568,1.05801 1.216485,1.17679 1.062451,1.41928 -0.09246,0.14554 -0.748175,0.80355 -1.45715,1.46223 -1.2282,1.14107 -1.296682,1.18513 -1.450784,0.93355 z m 5.815894,-1.13908 c -0.719558,-0.69063 -1.329617,-1.31162 -1.355695,-1.37997 -0.05521,-0.14471 2.528039,-2.63725 2.733225,-2.63725 0.147977,0 2.771979,2.44917 2.766792,2.58245 -0.0016,0.0438 -0.640508,0.66711 -1.419567,1.38508 l -1.416473,1.30539 z m 7.064678,0.14245 c -1.894566,-1.78148 -1.86038,-1.42471 -0.277206,-2.89287 l 1.366013,-1.2668 1.383449,1.27057 c 0.7609,0.6988 1.386437,1.32988 1.390092,1.4024 0.0058,0.1159 -2.420524,2.48674 -2.617674,2.55779 -0.04198,0.0151 -0.602088,-0.46687 -1.244674,-1.07109 z m 13.230349,-0.36271 c -0.50225,-0.47398 -0.91318,-0.8968 -0.91318,-0.9396 0,-0.15139 2.462624,-2.37224 2.549951,-2.2996 0.04873,0.0406 -0.0057,0.80289 -0.120995,1.69408 -0.266235,2.0577 -0.336356,2.40689 -0.483339,2.40689 -0.06558,0 -0.530186,-0.3878 -1.032437,-0.86177 z m -3.056792,-2.8829 c -0.760037,-0.7268 -1.403811,-1.37892 -1.430611,-1.44916 -0.05313,-0.13928 2.472728,-2.57212 2.617596,-2.52119 0.04889,0.0172 0.746877,0.65409 1.551124,1.41534 l 1.462274,1.3841 -1.322457,1.24778 c -0.727353,0.68627 -1.361517,1.24705 -1.409249,1.24617 -0.04774,-9.1e-4 -0.70864,-0.59625 -1.468677,-1.32304 z m -6.661567,0.26253 c -0.539127,-0.51397 -1.172266,-1.12662 -1.406973,-1.36144 l -0.426743,-0.42697 1.437835,-1.32762 1.437834,-1.32763 1.382701,1.27056 c 0.760487,0.69881 1.384244,1.32502 1.386128,1.39157 0.0031,0.11673 -2.564686,2.63431 -2.742902,2.68907 -0.04821,0.0148 -0.528759,-0.39358 -1.06788,-0.90754 z m -14.010219,-0.40082 c -1.029678,-0.98295 -1.252535,-1.26019 -1.143009,-1.42187 0.07483,-0.11047 0.712821,-0.73301 1.41776,-1.38344 l 1.281702,-1.18258 1.281079,1.22548 c 0.704587,0.67402 1.281072,1.27004 1.281072,1.32452 0,0.10538 -2.579425,2.57732 -2.742923,2.62862 -0.05313,0.0167 -0.672193,-0.51916 -1.375681,-1.19073 z m 6.853876,-0.054 c -0.742674,-0.70868 -1.35032,-1.33927 -1.35032,-1.40133 0,-0.11013 2.438969,-2.43508 2.621202,-2.49864 0.112122,-0.0391 2.780942,2.45286 2.778,2.59392 -10e-4,0.0552 -0.608798,0.66149 -1.350325,1.34742 l -1.348232,1.24713 z m 17.019445,-3.01683 -1.485829,-1.38752 1.200029,-1.12334 c 0.660016,-0.61785 1.276655,-1.13937 1.370315,-1.15896 0.117995,-0.0247 0.198548,0.254 0.262314,0.90755 0.145141,1.48752 0.2762,4.14981 0.20429,4.14981 -0.03591,0 -0.733917,-0.62439 -1.551119,-1.38754 z m -26.252074,0.81152 c -0.439547,-0.38405 -0.755074,-1.18613 -0.640356,-1.6278 0.03952,-0.15224 0.129432,-0.79604 0.199763,-1.43066 0.112603,-1.01613 0.465676,-2.0528 0.699154,-2.0528 0.07809,0 2.02915,1.81502 2.701211,2.51286 l 0.331209,0.34391 -1.313276,1.26401 c -0.722301,0.69518 -1.371666,1.28205 -1.443033,1.30412 -0.07136,0.0221 -0.311967,-0.11905 -0.534672,-0.31364 z m 12.594761,-0.92558 c -0.721636,-0.69437 -1.330664,-1.31124 -1.353392,-1.37081 -0.04014,-0.10519 2.497993,-2.60115 2.710449,-2.66543 0.123942,-0.0375 2.79564,2.4455 2.791049,2.59393 -0.0016,0.0552 -0.640507,0.6863 -1.419571,1.40255 l -1.416468,1.30226 z m 6.869731,-0.065 c -0.751886,-0.72086 -1.36539,-1.34867 -1.363337,-1.39515 0.0064,-0.14479 2.549155,-2.49634 2.658628,-2.4587 0.148297,0.051 2.77243,2.54503 2.77243,2.63499 0,0.0879 -2.486457,2.47189 -2.613984,2.50619 -0.04769,0.0128 -0.701845,-0.56648 -1.453737,-1.28733 z m -12.758558,0.81533 c -0.208891,-0.2191 -0.779188,-0.76678 -1.267327,-1.21709 -0.728064,-0.67163 -0.862035,-0.85644 -0.745647,-1.02855 0.07803,-0.11539 0.68733,-0.71439 1.354,-1.3311 l 1.21212,-1.12129 1.350184,1.26335 1.350188,1.26335 -1.323016,1.24951 c -0.727657,0.68724 -1.374247,1.26541 -1.436856,1.28484 -0.06261,0.0194 -0.284754,-0.14393 -0.493646,-0.36302 z m -4.264661,-4.04264 -1.486572,-1.40004 0.362579,-0.37649 c 0.199423,-0.20707 0.810727,-0.80201 1.358465,-1.3221 l 0.99588,-0.94562 1.486975,1.39967 c 1.722254,1.62114 1.737224,1.24733 -0.120052,2.99779 l -1.110702,1.04684 z m 20.276764,0.0728 -1.425445,-1.33283 1.530123,-1.44318 1.530124,-1.44316 1.400288,1.31567 c 0.770165,0.72362 1.400429,1.35035 1.400591,1.39272 4.14e-4,0.0973 -2.833197,2.84194 -2.935007,2.84291 -0.04135,3.6e-4 -0.71668,-0.59906 -1.500674,-1.33213 z m -13.55199,-0.018 c -0.804331,-0.76763 -1.240878,-1.27547 -1.177206,-1.36944 0.05566,-0.0822 0.694951,-0.70352 1.420638,-1.38085 l 1.319432,-1.23149 1.346478,1.26512 1.346478,1.26512 -1.387087,1.31044 c -0.762905,0.72075 -1.43282,1.32186 -1.488708,1.33581 -0.05589,0.0139 -0.676897,-0.52367 -1.380025,-1.19471 z m 6.888433,-0.0404 c -0.723097,-0.69615 -1.333182,-1.31411 -1.355748,-1.37326 -0.04795,-0.12569 2.417593,-2.49923 2.596103,-2.49923 0.125647,0 2.776582,2.48272 2.772917,2.59697 -10e-4,0.0358 -0.608797,0.62227 -1.350325,1.30319 l -1.348232,1.23805 z M 16.65213,118.05074 c -1.717077,-1.63963 -1.739423,-1.25675 0.178123,-3.05222 l 1.183299,-1.10797 1.493545,1.39475 1.49355,1.39474 -0.633745,0.6322 c -0.348556,0.34772 -0.993582,0.97449 -1.433385,1.39281 l -0.799651,0.7606 z m 13.600026,0.0654 c -0.723636,-0.6814 -1.333475,-1.3011 -1.355193,-1.37711 -0.03842,-0.13443 2.612989,-2.75075 2.860752,-2.8229 0.140853,-0.041 2.700126,2.33301 2.752874,2.55362 0.01889,0.079 -0.635504,0.7605 -1.454197,1.51446 l -1.488537,1.37084 z m -19.196546,0.92679 c -0.0529,-0.12046 -0.0225,-0.56845 0.06757,-0.99554 0.169565,-0.80405 0.935191,-2.78377 1.1139,-2.88027 0.05589,-0.0301 0.462013,0.26332 0.902493,0.65224 0.584243,0.51584 0.768626,0.75507 0.681661,0.88443 -0.06556,0.0975 -0.693009,0.71301 -1.394326,1.36773 -1.05147,0.98162 -1.291987,1.15199 -1.371305,0.97141 z m 12.452568,-1.06099 c -1.08719,-1.04643 -1.249237,-1.25541 -1.10796,-1.42878 0.09102,-0.11169 0.695223,-0.69937 1.342688,-1.30595 l 1.177201,-1.10288 1.244275,1.19856 c 0.684352,0.65921 1.264303,1.25106 1.28879,1.31524 0.04271,0.11202 -2.449837,2.56074 -2.598919,2.5532 -0.03994,-0.002 -0.645685,-0.55524 -1.346075,-1.22939 z m 13.018149,-0.81031 -0.719809,-0.70668 0.402047,-0.33654 0.402048,-0.33655 0.140084,0.28975 c 0.601234,1.24359 0.805702,1.80204 0.65886,1.79952 -0.08988,-9.4e-4 -0.487332,-0.32082 -0.88323,-0.7095 z m -16.409302,-2.40147 c -1.709503,-1.62626 -1.721321,-1.25756 0.09521,-2.96963 l 1.107045,-1.04338 1.479176,1.40714 c 1.709503,1.62626 1.721322,1.25757 -0.09521,2.96964 l -1.107043,1.04338 z m -6.345742,0.55803 c -0.418949,-0.41117 -0.814139,-0.82516 -0.878209,-0.91996 -0.08094,-0.11976 0.232227,-0.63231 1.02624,-1.67962 0.6285,-0.829 1.186842,-1.49201 1.240758,-1.47337 0.05392,0.0187 0.580678,0.48359 1.170574,1.03323 l 1.072538,0.99936 -0.359245,0.39221 c -0.197585,0.21572 -0.843375,0.84301 -1.435092,1.39398 l -1.075846,1.00174 z m 13.035189,-0.47297 c -1.145785,-1.07789 -1.269286,-1.23699 -1.103689,-1.42183 0.582426,-0.65009 2.807585,-2.67136 2.891153,-2.62624 0.05444,0.0294 0.666643,0.59139 1.360443,1.24885 l 1.261449,1.19541 -1.474617,1.40874 c -0.811035,0.77481 -1.512855,1.40876 -1.559598,1.40876 -0.04674,0 -0.66556,-0.54617 -1.375141,-1.21369 z m 7.022398,-0.24652 c -0.710356,-0.67001 -1.310245,-1.26352 -1.333088,-1.31893 -0.02282,-0.0555 0.290915,-0.41281 0.69725,-0.79423 l 0.738789,-0.69349 1.153316,1.59941 1.153317,1.59941 -0.458166,0.413 c -0.251981,0.22717 -0.503548,0.41302 -0.559013,0.41302 -0.05546,0 -0.682053,-0.54818 -1.392405,-1.21819 z m -10.415818,-2.95512 -1.505223,-1.40565 0.325075,-0.32642 c 0.178787,-0.17954 0.730232,-0.69398 1.225437,-1.14321 0.835015,-0.75751 0.943189,-0.81679 1.490493,-0.81679 0.648616,0 0.753363,0.068 2.186784,1.41976 l 0.799798,0.75423 -0.639895,0.63733 c -0.351944,0.35055 -1.030799,1.00839 -1.508574,1.46187 l -0.868672,0.82453 z m -6.56026,0.0653 c -0.552249,-0.51724 -1.004087,-0.99092 -1.004087,-1.05261 0,-0.0617 0.657588,-0.5941 1.461311,-1.18313 l 1.461316,-1.07095 0.421316,0.34944 c 0.231723,0.1922 0.667203,0.60457 0.967734,0.91639 l 0.546413,0.56694 -1.283072,1.2179 c -0.705693,0.66984 -1.346924,1.21307 -1.424964,1.20718 -0.07804,-0.006 -0.593723,-0.43391 -1.145967,-0.95116 z m 14.159479,0.21262 c -0.457914,-0.41983 -1.070973,-0.98827 -1.362343,-1.2632 l -0.529774,-0.49988 0.808367,-0.75093 0.808366,-0.75092 1.281073,1.22345 c 0.704594,0.67289 1.279567,1.26298 1.277719,1.3113 -0.0021,0.0484 -0.329043,0.40412 -0.727096,0.79068 l -0.723736,0.70282 z m -10.593239,-3.12294 -0.859497,-0.84704 h 1.759712 1.759711 l -0.859496,0.84704 c -0.472723,0.46587 -0.877817,0.84705 -0.900215,0.84705 -0.02241,0 -0.427497,-0.38118 -0.900215,-0.84705 z m 7.213828,-0.0142 c -0.412291,-0.39208 -0.711011,-0.7466 -0.663828,-0.78783 0.116105,-0.10143 2.970889,-0.11618 3.085629,-0.016 0.111425,0.0974 -1.339778,1.54268 -1.533688,1.52748 -0.07618,-0.006 -0.475827,-0.33164 -0.888113,-0.72371 z m -7.564593,-2.73868 c -0.264838,-2.84275 -1.409255,-4.89403 -3.823885,-6.853985 -1.335668,-1.08417 -1.207299,-1.07474 1.45603,0.10695 2.528432,1.121835 3.983247,2.008085 5.680558,3.460535 l 1.507746,1.29024 1.331398,-1.16976 c 1.64237,-1.443 3.62452,-2.62126 6.450944,-3.834685 1.145197,-0.49165 2.134518,-0.89413 2.198489,-0.89442 0.06396,-2.4e-4 -0.185321,0.20809 -0.553983,0.46306 -0.97222,0.67239 -2.536211,2.181895 -3.075285,2.968135 -0.877843,1.28035 -1.531887,3.38265 -1.539357,4.94795 l -0.0026,0.57477 h -4.765739 -4.76564 z m 2.428187,-6.210865 c -1.256844,-1.92988 -2.66366,-3.930115 -3.126259,-4.444962 -1.00091,-1.113956 -2.337379,-2.073784 -3.838315,-2.756621 -1.237859,-0.563149 -1.196124,-0.654486 0.299054,-0.654486 1.948512,0 3.705968,0.667499 4.995961,1.897522 0.798148,0.761049 2.032206,2.627707 3.338452,5.049807 l 0.581657,1.078535 1.471498,-2.530905 c 2.145118,-3.689494 2.865393,-4.491843 4.771078,-5.314749 0.98103,-0.423621 1.188707,-0.466816 2.487159,-0.517274 2.065015,-0.08028 2.152509,-0.03249 0.93026,0.507519 -0.571293,0.25242 -1.490263,0.758519 -2.042151,1.124672 -1.588122,1.05364 -2.238963,1.862869 -5.089632,6.328242 -1.306732,2.046905 -2.435903,3.756275 -2.474763,3.746385 -0.01037,-0.003 -1.047162,-1.5838 -2.303999,-3.513685 z m -2.441551,-0.11422 c -1.636435,-1.07569 -1.828058,-1.24059 -1.915641,-1.64848 -0.226588,-1.05529 -1.089508,-2.054121 -2.687946,-3.111308 -0.408988,-0.270493 -0.682441,-0.509638 -0.607662,-0.531408 0.22103,-0.06441 1.584374,0.42182 2.429135,0.866269 1.817321,0.956141 3.237972,2.297107 4.113689,3.882927 0.515939,0.934315 0.794919,1.763865 0.587153,1.745905 -0.05523,-0.005 -0.91865,-0.54653 -1.918728,-1.203905 z m 7.608683,0.775165 c 0.236236,-1.304355 2.089905,-3.586055 3.809165,-4.688746 0.80901,-0.51887 2.493848,-1.264638 3.094019,-1.369512 0.396667,-0.06927 0.29414,0.03678 -0.849226,0.879059 -1.350608,0.99491 -1.914903,1.698684 -2.223389,2.772974 -0.123978,0.43178 -0.320291,0.60159 -1.818584,1.57308 -2.243437,1.454645 -2.11491,1.401425 -2.011985,0.833145 z m -3.943188,-4.160805 c -1.079269,-1.415503 -1.192119,-1.711435 -1.350572,-3.541658 -0.202012,-2.333345 -0.695893,-4.18209 -1.48531,-5.560004 -0.179846,-0.313921 -0.326991,-0.627021 -0.326991,-0.695795 0,-0.411354 1.583399,0.294439 2.224656,0.991634 0.572622,0.622578 1.184959,1.699901 1.362909,2.397871 0.200856,0.787805 0.454705,4.669472 0.403235,6.165945 l -0.04371,1.270557 z m 1.593753,-2.057097 c 0.06829,-3.492232 0.270532,-4.704713 1.004784,-6.024 0.370667,-0.666006 0.665659,-1.002398 1.20776,-1.377242 0.795431,-0.550032 1.567722,-0.910985 1.70064,-0.794862 0.04764,0.04164 -0.134394,0.527842 -0.404507,1.080497 -0.785827,1.607779 -1.179123,3.214354 -1.467316,5.993791 -0.117832,1.136416 -0.18151,1.325906 -0.777535,2.313572 -0.357052,0.591687 -0.80053,1.232641 -0.985495,1.424341 l -0.336307,0.34854 z m -0.7264,-5.09216 c -1.382752,-2.08984 -1.429983,-5.076644 -0.115582,-7.309484 l 0.285791,-0.485478 0.387689,0.726032 c 0.675767,1.265516 0.87978,2.150353 0.864914,3.751177 -0.01115,1.203641 -0.07704,1.6367 -0.384988,2.53119 -0.535767,1.556304 -0.530936,1.552644 -1.037824,0.786563 z"
       id="path263"
       inkscape:label="piña" />
  </g>
</svg>
